<svg width="24" height="24" viewBox="0 0 24 24" fill="none" xmlns="http://www.w3.org/2000/svg">
<path d="M11.895 9.49359C11.9264 9.51537 11.9637 9.52704 12.0019 9.52704C12.0401 9.52704 12.0774 9.51537 12.1088 9.49359C12.9789 8.8983 13.9703 8.50368 15.0115 8.33822C16.0527 8.17277 17.1176 8.24062 18.1294 8.53687C18.158 8.5455 18.1883 8.54715 18.2178 8.54168C18.2472 8.53621 18.2748 8.52378 18.2985 8.50542C18.3221 8.48707 18.341 8.46333 18.3536 8.43618C18.3662 8.40903 18.3721 8.37927 18.3708 8.34937C18.2269 4.96219 15.4238 2.25 12.0019 2.25C8.58001 2.25 5.77689 4.96219 5.63298 8.35078C5.63171 8.38067 5.63761 8.41044 5.65019 8.43759C5.66277 8.46473 5.68167 8.48848 5.7053 8.50683C5.72893 8.52518 5.75661 8.53762 5.78602 8.54309C5.81544 8.54856 5.84574 8.54691 5.87439 8.53828C6.88616 8.24203 7.9511 8.17418 8.99228 8.33963C10.0335 8.50508 11.0249 8.89971 11.895 9.495V9.49359Z" fill="#A5AEE9"/>
<path d="M18.9983 9.96382C18.7876 11.0537 18.326 12.0796 17.65 12.9602C16.9741 13.8408 16.1024 14.5518 15.104 15.0371C15.0714 15.0526 15.044 15.0772 15.025 15.1078C15.0061 15.1385 14.9964 15.174 14.9971 15.2101C14.9971 15.2649 14.9994 15.3198 14.9994 15.3751C14.9999 16.3391 14.8042 17.2931 14.4242 18.179C14.0443 19.065 13.488 19.8644 12.7893 20.5285C12.7684 20.5482 12.7523 20.5725 12.7423 20.5994C12.7322 20.6263 12.7285 20.6552 12.7314 20.6838C12.7343 20.7124 12.7438 20.7399 12.759 20.7643C12.7742 20.7886 12.7948 20.8092 12.8193 20.8243C13.8149 21.4309 14.9585 21.7513 16.1244 21.7501C19.5027 21.7501 22.4104 18.9244 22.4994 15.5466C22.5299 14.3918 22.2461 13.2504 21.6785 12.2442C21.1108 11.2381 20.2805 10.405 19.2763 9.83397C19.2502 9.81899 19.2209 9.81051 19.1908 9.80925C19.1608 9.80798 19.1309 9.81397 19.1036 9.8267C19.0763 9.83943 19.0525 9.85854 19.0342 9.88241C19.0159 9.90627 19.0036 9.93419 18.9983 9.96382Z" fill="#A5AEE9"/>
<path d="M18.3073 9.54705C18.314 9.50332 18.305 9.45864 18.2819 9.42089C18.2588 9.38315 18.2231 9.35478 18.1812 9.3408C17.299 9.03995 16.3615 8.93645 15.4349 9.03761C14.5083 9.13878 13.6152 9.44214 12.8187 9.92627C12.7944 9.94142 12.7739 9.96191 12.7588 9.98619C12.7437 10.0105 12.7343 10.0379 12.7314 10.0663C12.7285 10.0948 12.7322 10.1235 12.7421 10.1504C12.752 10.1772 12.768 10.2014 12.7887 10.2211C13.8643 11.2446 14.5931 12.5787 14.8732 14.0367C14.8788 14.0662 14.8913 14.094 14.9098 14.1176C14.9283 14.1412 14.9521 14.1601 14.9794 14.1726C15.0067 14.1851 15.0366 14.1908 15.0665 14.1894C15.0965 14.1879 15.1257 14.1793 15.1516 14.1642C15.9933 13.6843 16.7148 13.0192 17.2615 12.2193C17.8082 11.4194 18.1658 10.5056 18.3073 9.54705V9.54705Z" fill="#A5AEE9"/>
<path d="M8.99987 15.3751C8.99987 15.3198 8.99987 15.2649 9.00222 15.2101C9.00292 15.174 8.99322 15.1385 8.97426 15.1079C8.95531 15.0772 8.9279 15.0526 8.89534 15.0371C7.89693 14.5519 7.02522 13.8408 6.34927 12.9602C5.67332 12.0796 5.2117 11.0537 5.00097 9.96384C4.99557 9.93455 4.98328 9.90697 4.96511 9.88338C4.94694 9.85979 4.92341 9.84087 4.89648 9.82818C4.86954 9.81549 4.83997 9.8094 4.81021 9.81041C4.78045 9.81142 4.75136 9.8195 4.72534 9.83399C3.72113 10.4051 2.89086 11.2381 2.32319 12.2443C1.75552 13.2504 1.47176 14.3918 1.50222 15.5466C1.59362 18.9245 4.49987 21.7501 7.87722 21.7501C9.04231 21.7509 10.1851 21.4305 11.18 20.8243C11.2045 20.8092 11.2251 20.7886 11.2403 20.7643C11.2555 20.7399 11.265 20.7124 11.2679 20.6838C11.2708 20.6552 11.2671 20.6263 11.257 20.5994C11.247 20.5725 11.2309 20.5482 11.21 20.5285C10.5113 19.8644 9.95504 19.065 9.57508 18.1791C9.19512 17.2931 8.99941 16.3391 8.99987 15.3751V15.3751Z" fill="#A5AEE9"/>
<path d="M7.87653 9C7.17681 8.99939 6.4818 9.11454 5.81966 9.34079C5.77769 9.35476 5.74201 9.38313 5.71893 9.42088C5.69586 9.45862 5.68687 9.50331 5.69356 9.54704C5.835 10.5056 6.1926 11.4194 6.73931 12.2193C7.28602 13.0192 8.00751 13.6843 8.84919 14.1642C8.87513 14.1793 8.90432 14.1879 8.93429 14.1894C8.96426 14.1908 8.99414 14.1851 9.02142 14.1726C9.0487 14.1601 9.07258 14.1412 9.09106 14.1176C9.10954 14.0939 9.12208 14.0662 9.12763 14.0367C9.40771 12.5786 10.1365 11.2446 11.2122 10.2211C11.2329 10.2014 11.2488 10.1772 11.2587 10.1503C11.2686 10.1235 11.2723 10.0948 11.2694 10.0663C11.2665 10.0379 11.2571 10.0105 11.242 9.98618C11.2269 9.9619 11.2064 9.9414 11.1822 9.92625C10.1865 9.31922 9.04265 8.99871 7.87653 9V9Z" fill="#A5AEE9"/>
<path d="M12.0019 15.7499C11.3241 15.7504 10.6498 15.6538 9.99939 15.463C9.97074 15.4544 9.94044 15.4528 9.91102 15.4582C9.88161 15.4637 9.85393 15.4761 9.8303 15.4945C9.80667 15.5128 9.78777 15.5366 9.77519 15.5637C9.76261 15.5909 9.75671 15.6207 9.75798 15.6505C9.79433 16.4996 10.0005 17.3328 10.3642 18.1009C10.728 18.8689 11.2419 19.5563 11.8758 20.1224C11.9103 20.1538 11.9553 20.1712 12.0019 20.1712C12.0485 20.1712 12.0935 20.1538 12.128 20.1224C12.7618 19.5563 13.2758 18.8689 13.6396 18.1009C14.0033 17.3328 14.2094 16.4996 14.2458 15.6505C14.2471 15.6207 14.2412 15.5909 14.2286 15.5637C14.216 15.5366 14.1971 15.5128 14.1735 15.4945C14.1498 15.4761 14.1222 15.4637 14.0928 15.4582C14.0633 15.4528 14.033 15.4544 14.0044 15.463C13.354 15.6538 12.6797 15.7504 12.0019 15.7499V15.7499Z" fill="#A5AEE9"/>
<path d="M14.1845 14.4531C13.9678 12.9769 13.2401 11.6236 12.1281 10.629C12.0932 10.598 12.0482 10.5808 12.0015 10.5808C11.9549 10.5808 11.9098 10.598 11.875 10.629C10.763 11.6236 10.0352 12.9769 9.81856 14.4531C9.81187 14.4968 9.82086 14.5415 9.84393 14.5792C9.86701 14.617 9.90269 14.6453 9.94466 14.6593C11.2783 15.1137 12.7248 15.1137 14.0584 14.6593C14.1004 14.6453 14.1361 14.617 14.1591 14.5792C14.1822 14.5415 14.1912 14.4968 14.1845 14.4531Z" fill="#A5AEE9"/>
</svg>
